# xmcd
#
# Track frame offsets:
#	150
#	16677
#	38284
#	55567
#
# Disc length: 961 seconds
#
# Revision: 0
# Processed by: cddbd v1.5.2PL0 Copyright (c) Steve Scherf et al.
# Submitted via: audiograbber 1.83.01
#
DISCID=1903bf04
DTITLE=James Blake - CMYK EP
DYEAR=2010
DGENRE=Electronic
TTITLE0=CMYK
TTITLE1=Foot Notes
TTITLE2=I'll Stay
TTITLE3=Postpone
EXTD=
EXTT0=
EXTT1=
EXTT2=
EXTT3=
PLAYORDER=
